<?xml version="1.0" encoding="utf-8"?>
<!-- Generator: Adobe Illustrator 22.0.1, SVG Export Plug-In . SVG Version: 6.00 Build 0)  -->
<svg version="1.1" id="Layer_1" xmlns="http://www.w3.org/2000/svg" xmlns:xlink="http://www.w3.org/1999/xlink" x="0px" y="0px"
	 viewBox="0 0 576 161" style="enable-background:new 0 0 576 161;" xml:space="preserve">
<style type="text/css">
	.st0{fill:#100E0F;}
</style>
<g>
	<path class="st0" d="M110.7,70.7H62.4c-1.2,0-2.3,1-2.3,2.3v23.6c0,1.2,1,2.3,2.3,2.3h18.8v29.4c0,0-4.2,1.4-15.9,1.4
		c-13.8,0-33.1-5-33.1-47.5c0-42.4,20.1-48,38.9-48c16.3,0,23.3,2.9,27.8,4.3c1.4,0.4,2.7-1,2.7-2.2l5.4-22.8c0-0.6-0.2-1.3-0.9-1.8
		c-1.8-1.3-12.9-7.5-40.9-7.5C33.1,4.1,0,17.8,0,83.8s37.9,75.8,69.8,75.8c26.4,0,42.5-11.3,42.5-11.3c0.7-0.4,0.7-1.3,0.7-1.7V72.9
		C113,71.7,112,70.7,110.7,70.7z"/>
	<path class="st0" d="M359.8,12c0-1.3-1-2.3-2.2-2.3h-27.2c-1.2,0-2.3,1-2.3,2.3v52.6h-42.4V12c0-1.3-1-2.3-2.2-2.3h-27.2
		c-1.2,0-2.2,1-2.2,2.3v142.4c0,1.3,1,2.3,2.2,2.3h27.2c1.2,0,2.2-1,2.2-2.3V93.5h42.4l-0.1,60.9c0,1.3,1,2.3,2.3,2.3h27.3
		c1.2,0,2.2-1,2.2-2.3L359.8,12L359.8,12z"/>
	<g>
		<g>
			<path class="st0" d="M162.1,30.7c0-9.8-7.9-17.7-17.5-17.7c-9.7,0-17.5,7.9-17.5,17.7s7.9,17.7,17.5,17.7
				C154.2,48.4,162.1,40.5,162.1,30.7z"/>
			<path class="st0" d="M160.1,124.4c0-3.6,0-65.7,0-65.7c0-1.2-1-2.3-2.3-2.3h-27.1c-1.2,0-2.4,1.3-2.4,2.5c0,0,0,79.1,0,94.2
				c0,2.8,1.7,3.6,4,3.6c0,0,11.6,0,24.4,0c2.7,0,3.3-1.3,3.3-3.6C160.1,148,160.1,128.2,160.1,124.4z"/>
		</g>
	</g>
	<path class="st0" d="M463.2,56.6h-27c-1.2,0-2.2,1-2.2,2.3v69.8c0,0-6.9,5-16.6,5s-12.3-4.4-12.3-13.9s0-60.9,0-60.9
		c0-1.3-1-2.3-2.2-2.3h-27.4c-1.2,0-2.2,1-2.2,2.3c0,0,0,37.2,0,65.5s15.8,35.2,37.5,35.2c17.8,0,32.2-9.8,32.2-9.8s0.7,5.2,1,5.8
		s1.1,1.2,2,1.2l17.4-0.1c1.2,0,2.2-1,2.2-2.3V58.8C465.4,57.6,464.4,56.6,463.2,56.6z"/>
	<path class="st0" d="M536.9,53.4c-15.3,0-25.8,6.8-25.8,6.8V12c0-1.3-1-2.3-2.2-2.3h-27.3c-1.2,0-2.2,1-2.2,2.3v142.4
		c0,1.3,1,2.3,2.3,2.3h18.9c0.9,0,1.5-0.4,2-1.2s1.1-6.6,1.1-6.6s11.2,10.6,32.3,10.6c24.8,0,39-12.6,39-56.5S552.3,53.4,536.9,53.4
		z M526.3,133.6c-9.4-0.3-15.7-4.5-15.7-4.5V84c0,0,6.3-3.8,14-4.5c9.7-0.9,19.1,2.1,19.1,25.3C543.6,129.2,539.4,134,526.3,133.6z"
		/>
	<path class="st0" d="M238.3,56.4h-20.4v-27c0-1-0.5-1.5-1.7-1.5h-27.8c-1.1,0-1.7,0.5-1.7,1.5v27.9c0,0-13.9,3.4-14.9,3.6
		c-0.9,0.3-1.6,1.1-1.6,2.2v17.5c0,1.3,1,2.3,2.2,2.3h14.3c0,0,0,18.3,0,42.1c0,31.3,21.9,34.4,36.8,34.4c6.8,0,14.9-2.2,16.2-2.7
		c0.8-0.3,1.3-1.1,1.3-2v-19.3c0-1.3-1.1-2.3-2.3-2.3s-4.2,0.5-7.4,0.5c-10,0-13.4-4.7-13.4-10.7s0-40,0-40h20.4
		c1.2,0,2.3-1,2.3-2.3V58.7C240.6,57.4,239.6,56.4,238.3,56.4z"/>
</g>
</svg>
