<?xml version="1.0" encoding="utf-8"?>
<!-- Generator: Adobe Illustrator 22.0.1, SVG Export Plug-In . SVG Version: 6.00 Build 0)  -->
<svg version="1.1" id="Layer_1" xmlns="http://www.w3.org/2000/svg" xmlns:xlink="http://www.w3.org/1999/xlink" x="0px" y="0px"
	 viewBox="0 0 958.7 935" style="enable-background:new 0 0 958.7 935;" xml:space="preserve">
<style type="text/css">
	.st0{fill:#181616;}
</style>
<title>github_logo</title>
<path d="M479.3,0C214.6,0,0,214.6,0,479.3c0,211.8,137.3,391.5,327.8,454.9c24,4.4,32.8-10.4,32.8-23.1c0-11.4-0.4-49.2-0.6-89.2
	c-133.3,29-161.5-56.6-161.5-56.6c-21.8-55.4-53.2-70.1-53.2-70.1c-43.5-29.8,3.3-29.1,3.3-29.1c48.1,3.4,73.5,49.4,73.5,49.4
	c42.7,73.3,112.1,52.1,139.5,39.8c4.3-31,16.7-52.1,30.4-64.1C285.4,679.1,173.5,638,173.5,454.3c0-52.3,18.7-95.1,49.4-128.7
	c-5-12.1-21.4-60.8,4.6-126.9c0,0,40.2-12.9,131.8,49.1c38.2-10.6,79.2-16,120-16.1c40.7,0.2,81.8,5.5,120.1,16.1
	c91.5-62,131.7-49.1,131.7-49.1c26.1,66,9.7,114.8,4.7,126.9c30.7,33.6,49.3,76.3,49.3,128.7c0,184.1-112.1,224.6-218.9,236.5
	c17.2,14.9,32.5,44,32.5,88.8c0,64.1-0.5,115.8-0.5,131.5c0,12.8,8.6,27.7,32.9,23C821.5,870.7,958.7,691,958.7,479.3
	C958.7,214.6,744.1,0,479.3,0z"/>
<path class="st0" d="M181.6,688.2c-1.1,2.4-4.8,3.1-8.2,1.5s-5.4-4.8-4.3-7.2s4.8-3.1,8.3-1.5S182.8,685.8,181.6,688.2L181.6,688.2z
	"/>
<path class="st0" d="M201,709.9c-2.3,2.1-6.8,1.1-9.8-2.2s-3.7-7.8-1.4-10s6.7-1.1,9.8,2.2S203.4,707.7,201,709.9L201,709.9z"/>
<path class="st0" d="M219.9,737.5c-2.9,2-7.8,0.1-10.7-4.1s-2.9-9.4,0.1-11.4s7.7-0.2,10.7,4S222.9,735.4,219.9,737.5L219.9,737.5z"
	/>
<path class="st0" d="M245.8,764.2c-2.6,2.9-8.2,2.1-12.3-1.8s-5.4-9.3-2.7-12.2s8.3-2.1,12.4,1.8S248.6,761.3,245.8,764.2z"/>
<path class="st0" d="M281.5,779.6c-1.2,3.8-6.5,5.5-12,3.9s-9-6-7.9-9.8s6.5-5.6,12-3.8S282.6,775.8,281.5,779.6L281.5,779.6z"/>
<path class="st0" d="M320.7,782.5c0.1,4-4.5,7.2-10.2,7.3s-10.4-3.1-10.4-7s4.5-7.2,10.2-7.3S320.7,778.5,320.7,782.5L320.7,782.5z"
	/>
<path class="st0" d="M357.2,776.3c0.7,3.8-3.3,7.8-8.9,8.9s-10.7-1.4-11.4-5.2s3.4-7.9,8.9-8.9S356.5,772.4,357.2,776.3z"/>
</svg>
