<?xml version="1.0" encoding="utf-8"?>
<!-- Generator: Adobe Illustrator 22.0.1, SVG Export Plug-In . SVG Version: 6.00 Build 0)  -->
<svg version="1.1" id="Layer_1" xmlns="http://www.w3.org/2000/svg" xmlns:xlink="http://www.w3.org/1999/xlink" x="0px" y="0px"
	 viewBox="0 0 841.9 595.3" style="enable-background:new 0 0 841.9 595.3;" xml:space="preserve">
<title>Soundcloud_logo</title>
<path d="M10.7,303.6c-1.8,0.1-3.3,1.8-3.4,4L1.2,363l6.1,54.5c0.1,2.1,1.6,3.8,3.4,3.9c1.8-0.1,3.2-1.8,3.3-3.9l0,0l7.3-54.5
	l-7.3-55.5C14,305.4,12.5,303.7,10.7,303.6z M45.3,273.3c-0.1-2.3-1.8-4.1-3.7-3.9c-1.8,0.1-3.2,1.8-3.3,3.9L30,363l8.3,87.8
	c0,2.3,1.6,4.2,3.5,4.2c1.9,0,3.5-1.9,3.5-4.2l9.4-87.8L45.3,273.3z M175.5,190.5c-3.5,0.1-6.3,3.4-6.4,7.5l-6.6,165.1l6.6,106.7
	c0,4.2,2.9,7.6,6.4,7.6c3.5,0,6.4-3.4,6.4-7.6l0,0l7.4-106.7L181.8,198C181.7,193.9,178.9,190.6,175.5,190.5z M108.1,247.9
	c-2.7,0.1-4.8,2.6-4.9,5.8l-7.4,109.4l7.4,105.9c0,3.2,2.2,5.9,4.9,5.9c2.7,0,4.9-2.6,4.9-5.9l8.4-105.9L113,253.6
	C112.9,250.5,110.8,248,108.1,247.9z M243.9,477.3c4.3-0.1,7.7-4.1,7.8-9.2l6.5-104.9l-6.5-219.9c0-5.1-3.5-9.3-7.8-9.3
	s-7.8,4.2-7.8,9.3l-5.7,219.8l5.7,105C236.2,473.2,239.7,477.3,243.9,477.3z M384.1,477.8c5.8-0.1,10.6-5.7,10.7-12.6l0,0l4.5-101.9
	l-4.5-253.9c-0.2-7-5.1-12.5-11-12.3c-5.6,0.2-10.1,5.6-10.3,12.3l-4,253.8c0,0.2,4,102.1,4,102.1
	C373.5,472.2,378.3,477.7,384.1,477.8z M313.5,477.4c5.1,0,9.2-4.9,9.2-10.9v0.1l5.5-103.4l-5.5-221.5c0-6.1-4.1-11-9.2-11
	c-5.1,0-9.2,4.9-9.2,11l-4.9,221.5l4.9,103.3C304.3,472.6,308.4,477.4,313.5,477.4z M141.7,476.4c3.1-0.1,5.5-3,5.6-6.6l7.9-106.8
	l-7.9-101.5c-0.1-3.7-2.8-6.6-5.9-6.4c-2.9,0.1-5.3,2.9-5.4,6.4l-7,101.5l7,106.7C136.1,473.5,138.6,476.4,141.7,476.4L141.7,476.4z
	 M74.8,470.6c2.2-0.1,4.1-2.2,4.2-4.9l8.9-102.6L79,256.6c0-2.8-1.9-5-4.2-5c-2.3,0-4.2,2.2-4.2,5l-7.8,106.5l7.8,102.6
	C70.6,468.4,72.5,470.6,74.8,470.6L74.8,470.6z M348.6,138.1c-5.5,0-9.9,5.3-10,11.8l-4.4,213.4l4.4,102.7
	c0.2,6.5,4.8,11.6,10.3,11.4c5.2-0.2,9.4-5.2,9.6-11.5v0.1l5-102.7l-5-213.4C358.5,143.3,354.1,138.1,348.6,138.1z M209.6,477.5
	c3.9-0.1,7-3.8,7.1-8.3l6.9-106l-6.9-202.9c-0.2-4.7-3.4-8.3-7.4-8.1c-3.7,0.2-6.7,3.7-6.8,8.1l-6.1,202.9l6.2,106.1
	C202.6,473.8,205.7,477.5,209.6,477.5z M287.1,467.5L287.1,467.5l6-104.3l-6-227.3c-0.2-5.6-4.1-10-8.8-9.8
	c-4.5,0.2-8.1,4.5-8.2,9.8l-5.3,227.3l5.3,104.3c0,5.6,3.8,10.1,8.5,10.1S287.1,473.1,287.1,467.5L287.1,467.5L287.1,467.5z
	 M738.2,232.2c-13.7,0-27.3,3.2-40,9.5C690,130.9,611.8,44,516.6,44c-22.6,0-45,5-66.1,14.7c-7.8,3.6-9.9,7.3-10,14.5v390.2
	c0.1,7.5,4.9,13.7,11.2,14.5c0.3,0,284.6,0.2,286.5,0.2c57.1,0,103.4-55.1,103.3-123C841.5,287.2,795.2,232.2,738.2,232.2
	L738.2,232.2z M419.4,72.8c-6.3,0-11.3,6.1-11.4,13.5l-4.6,276.9l4.7,100.5c0,7.5,5.1,13.5,11.4,13.5c6.3,0,11.4-6.1,11.3-13.6v0.1
	l5.1-100.5l-5.1-277C430.7,78.9,425.6,72.9,419.4,72.8z"/>
</svg>
