<svg id="Layer_1" data-name="Layer 1" xmlns="http://www.w3.org/2000/svg" viewBox="0 0 400 400"><title>Artboard 1</title><g id="Logo_FIXED" data-name="Logo FIXED"><path d="M126,362c150.36,0,232.63-124.69,232.63-232.63,0-3.51,0-7-.16-10.53a166.43,166.43,0,0,0,40.82-42.41,166.12,166.12,0,0,1-47,12.92,82.31,82.31,0,0,0,36-45.29,162.37,162.37,0,0,1-52,19.77,81.78,81.78,0,0,0-141.43,56,90.79,90.79,0,0,0,2.07,18.66A232.18,232.18,0,0,1,28.41,53,82.08,82.08,0,0,0,53.76,162.21a82.7,82.7,0,0,1-37-10.2v1.11A81.94,81.94,0,0,0,82.3,233.33a82.14,82.14,0,0,1-36.83,1.43,81.75,81.75,0,0,0,76.37,56.76A163.94,163.94,0,0,1,20.27,326.6,158.1,158.1,0,0,1,.82,325.49,232.66,232.66,0,0,0,126,362"/></g></svg>