<?xml version="1.0" encoding="utf-8"?>
<!-- Generator: Adobe Illustrator 22.0.1, SVG Export Plug-In . SVG Version: 6.00 Build 0)  -->
<svg version="1.1" id="Layer_1" xmlns="http://www.w3.org/2000/svg" xmlns:xlink="http://www.w3.org/1999/xlink" x="0px" y="0px"
	 viewBox="0 0 192 192" style="enable-background:new 0 0 192 192;" xml:space="preserve">
<title>youtube_logo</title>
<path d="M187,48.1c-2.2-8.3-8.6-14.8-16.9-17c-14.9-4-74.6-4-74.6-4s-59.7,0-74.6,4c-8.3,2.3-14.7,8.8-16.9,17c-4,15-4,46.4-4,46.4
	s0,31.4,4,46.4c2.2,8.3,8.6,14.8,16.9,17c14.9,4,74.6,4,74.6,4s59.7,0,74.6-4c8.3-2.3,14.7-8.8,16.9-17c4-15,4-46.4,4-46.4
	S191,63.1,187,48.1z M76,123V66l49.9,28.5L76,123z"/>
</svg>
